<svg width="16" height="22" viewBox="0 0 16 22" fill="none" xmlns="http://www.w3.org/2000/svg">
<path d="M15.436 11.0715C15.436 9.59907 14.6327 8.82781 13.546 8.82781H10.3802C10.6165 7.56575 10.711 6.3738 10.711 5.32208C10.711 1.25544 9.95498 0.414062 9.29348 0.414062C8.86823 0.414062 8.53748 0.484177 8.11223 0.83475C7.97048 0.974979 7.92323 1.11521 7.87598 1.32555L7.40348 5.11174C6.88373 7.07495 5.60798 8.82781 4.56848 10.0198V20.0461C4.94648 20.0461 5.32448 20.3266 5.79698 20.6772C6.31673 21.0277 6.83648 21.4484 7.40348 21.4484H11.8922C12.8372 21.4484 13.546 20.3266 13.546 19.345C13.546 19.1347 13.546 18.9944 13.4987 18.8542C14.0657 18.5036 14.491 17.8025 14.491 16.891C14.491 16.4703 14.4437 16.1197 14.3492 15.7692C14.7272 15.4186 15.058 14.7875 15.058 14.0864C15.058 13.6657 14.9162 13.245 14.7745 12.8945C15.1525 12.4738 15.436 11.7726 15.436 11.0715ZM14.4437 11.0715C14.4437 11.983 13.8295 12.0531 13.735 12.4738C13.6405 12.9646 14.113 13.1048 14.113 13.9462C14.113 14.7875 13.4042 14.7875 13.3097 15.2784C13.2152 15.8393 13.546 15.9795 13.546 16.8209V16.9611C13.4515 17.6622 12.7427 17.7324 12.601 18.0128C12.4592 18.3634 12.601 18.5036 12.601 19.2749C12.601 19.6956 12.2702 19.976 11.8922 19.976H7.40348C7.02548 19.976 6.64748 19.6956 6.17498 19.345C5.79698 19.0645 5.41898 18.7841 5.04098 18.6439V11.2818C6.22223 9.94964 7.73423 7.98644 8.30123 5.53243V5.3922L8.72648 1.88647C8.91548 1.81635 9.05723 1.81635 9.29348 1.81635C9.38798 1.81635 9.76598 2.65773 9.76598 5.32208C9.76598 6.3738 9.62423 7.49563 9.38798 8.82781H9.29348C9.00998 8.82781 8.82098 9.10827 8.82098 9.52896C8.82098 9.94964 9.00998 10.2301 9.29348 10.2301H13.546C14.0185 10.2301 14.4437 10.5807 14.4437 11.0715Z" fill="#BDBDBD"/>
<path d="M4.09598 21.4484H1.26098C0.741229 21.4484 0.315979 20.8174 0.315979 20.0462V10.2301C0.315979 9.45885 0.741229 8.82782 1.26098 8.82782H4.09598C4.61573 8.82782 5.04098 9.45885 5.04098 10.2301V20.0462C5.04098 20.8174 4.61573 21.4484 4.09598 21.4484ZM1.26098 10.2301V20.0462H4.09598V10.2301H1.26098Z" fill="#BDBDBD"/>
</svg>
