<svg width="15" height="18" viewBox="0 0 15 18" fill="none" xmlns="http://www.w3.org/2000/svg">
<path d="M15 9.12C15 7.86 13.9375 7.2 12.5 7.2H8.3125C8.625 6.12 8.75 5.1 8.75 4.2C8.75 0.72 7.75 0 6.875 0C6.3125 0 5.875 0.0600002 5.3125 0.36C5.125 0.48 5.0625 0.6 5 0.78L4.375 4.02C3.6875 5.7 2 7.2 0.625 8.22V16.8C1.125 16.8 1.625 17.04 2.25 17.34C2.9375 17.64 3.625 18 4.375 18H10.3125C11.5625 18 12.5 17.04 12.5 16.2C12.5 16.02 12.5 15.9 12.4375 15.78C13.1875 15.48 13.75 14.88 13.75 14.1C13.75 13.74 13.6875 13.44 13.5625 13.14C14.0625 12.84 14.5 12.3 14.5 11.7C14.5 11.34 14.3125 10.98 14.125 10.68C14.625 10.32 15 9.72 15 9.12ZM13.6875 9.12C13.6875 9.9 12.875 9.96 12.75 10.32C12.625 10.74 13.25 10.86 13.25 11.58C13.25 12.3 12.3125 12.3 12.1875 12.72C12.0625 13.2 12.5 13.32 12.5 14.04V14.16C12.375 14.76 11.4375 14.82 11.25 15.06C11.0625 15.36 11.25 15.48 11.25 16.14C11.25 16.5 10.8125 16.74 10.3125 16.74H4.375C3.875 16.74 3.375 16.5 2.75 16.2C2.25 15.96 1.75 15.72 1.25 15.6V9.3C2.8125 8.16 4.8125 6.48 5.5625 4.38V4.26L6.125 1.26C6.375 1.2 6.5625 1.2 6.875 1.2C7 1.2 7.5 1.92 7.5 4.2C7.5 5.1 7.3125 6.06 7 7.2H6.875C6.5 7.2 6.25 7.44 6.25 7.8C6.25 8.16 6.5 8.4 6.875 8.4H12.5C13.125 8.4 13.6875 8.7 13.6875 9.12Z" fill="#BDBDBD"/>
</svg>
